<?xml version="1.0" standalone="no"?>
<!DOCTYPE svg>
<svg version="1.0" xmlns="http://www.w3.org/2000/svg"
 width="571.000000pt" height="571.000000pt" viewBox="0 0 571.000000 571.000000"
 preserveAspectRatio="xMidYMid meet">
<metadata>
RSSB Custom Logo
</metadata>
<g transform="translate(0.000000,571.000000) scale(0.100000,-0.100000)"
fill="#000000" stroke="none">
<path d="M2517 5695 c-1315 -159 -2348 -1195 -2502 -2510 -20 -169 -20 -491 0
-660 144 -1226 1055 -2220 2263 -2470 358 -75 796 -75 1154 0 1208 250 2119
1244 2263 2470 20 169 20 491 0 660 -104 883 -610 1668 -1371 2123 -349 208
-735 340 -1139 387 -159 18 -514 18 -668 0z m1303 -1214 c41 -6 87 -14 103
-17 l27 -6 0 -119 c0 -65 -3 -119 -8 -119 -4 0 -30 15 -57 33 -95 62 -181 88
-291 89 -230 1 -336 -164 -195 -303 35 -35 96 -71 249 -147 212 -106 283 -154
339 -227 59 -78 78 -191 50 -295 -14 -52 -71 -143 -113 -181 -141 -129 -388
-183 -625 -136 -100 20 -181 49 -190 68 -14 30 -60 231 -54 237 2 3 27 -10 56
-28 209 -128 425 -158 586 -79 81 39 113 88 113 173 0 109 -42 145 -348 301
-141 71 -185 99 -243 153 -96 90 -119 137 -119 247 0 72 4 95 26 142 53 111
147 175 314 212 139 31 186 31 380 2z m-1513 -13 c69 -10 126 -30 203 -73 40
-22 77 -66 110 -130 26 -51 30 -69 30 -142 0 -69 -4 -92 -24 -132 -32 -63
-130 -152 -211 -192 -42 -22 -61 -36 -56 -43 5 -6 39 -51 75 -101 37 -49 75
-101 86 -115 52 -68 114 -152 156 -212 25 -37 82 -103 125 -147 77 -79 79 -81
53 -87 -14 -4 -63 -4 -108 -2 -128 8 -211 61 -301 191 -65 96 -133 192 -150
212 -16 21 -84 116 -157 220 -23 33 -45 62 -50 63 -4 2 -8 12 -8 22 0 13 10
20 33 25 92 18 182 60 240 114 84 77 90 228 12 319 -49 58 -148 81 -279 67
l-66 -7 0 -532 c0 -578 2 -601 55 -664 14 -17 25 -33 25 -36 0 -3 -85 -6 -190
-6 -155 0 -190 3 -190 14 0 7 9 20 20 27 11 8 29 40 40 72 20 57 21 78 18 610
-3 545 -3 553 -25 593 -12 22 -29 46 -37 53 -9 8 -16 17 -16 22 0 13 496 11
587 -3z m239 -1832 l59 -12 3 -122 c1 -67 0 -122 -4 -122 -4 0 -21 10 -38 23
-119 90 -294 128 -411 92 -108 -35 -150 -80 -149 -165 0 -103 50 -150 293
-269 211 -104 247 -125 313 -191 99 -98 131 -221 89 -347 -21 -67 -22 -69 -90
-144 -56 -63 -114 -101 -215 -141 -80 -31 -84 -32 -246 -32 -128 0 -179 4
-225 18 -33 10 -79 22 -102 27 -31 8 -43 17 -51 37 -16 47 -45 165 -50 207 -4
38 -4 39 14 24 57 -50 206 -114 313 -134 131 -25 245 -14 329 33 77 43 116
135 93 219 -19 68 -74 111 -293 224 -225 116 -311 176 -361 252 -44 68 -57
107 -57 179 0 188 161 334 395 358 97 10 309 2 391 -14z m1072 -20 c168 -43
260 -134 270 -266 8 -107 -36 -192 -135 -259 l-52 -35 41 -18 c22 -10 46 -18
52 -18 25 0 137 -98 166 -145 50 -81 65 -208 36 -313 -37 -134 -137 -225 -320
-289 -68 -24 -83 -25 -388 -30 -204 -4 -318 -2 -318 4 0 5 9 18 20 28 10 9 27
40 37 69 16 47 18 98 18 601 0 495 -2 554 -17 592 -9 24 -26 53 -38 65 -11 12
-20 26 -20 31 0 5 120 7 293 4 224 -3 307 -8 355 -21z"/>
<path d="M3370 2495 c-8 -2 -32 -6 -52 -10 l-38 -6 0 -193 c0 -221 -7 -206 93
-206 178 0 277 75 277 209 0 33 -4 71 -10 85 -15 40 -63 84 -107 100 -42 15
-137 27 -163 21z"/>
<path d="M3345 1935 c-5 -2 -22 -6 -37 -9 l-28 -6 0 -254 0 -253 61 -7 c34 -3
87 -6 118 -6 60 0 194 34 199 50 2 6 10 10 17 10 7 0 25 15 39 33 15 17 31 38
37 45 16 20 27 112 20 167 -16 116 -86 186 -216 220 -49 13 -182 19 -210 10z"/>
</g>
</svg>
